# xmcd
#
# Track frame offsets:
#	150
#	25785
#	43149
#	125965
#
# Disc length: 2429 seconds
#
# Revision: 0
# Processed by: cddbd v1.5.2PL0 Copyright (c) Steve Scherf et al.
# Submitted via: EasyCDDAExtractor 11.5.3.1
#
DISCID=34097b04
DTITLE=Esther Phillips - At Onkel Pö's Carnegie Hall
DYEAR=2017
DGENRE=Blues
TTITLE0=I've Never Found a Man
TTITLE1=Man Ain't Ready
TTITLE2=The Blues
TTITLE3=Native New Yoker
EXTD=
EXTT0=
EXTT1=
EXTT2=
EXTT3=
PLAYORDER=
